# AST/ASF file generated using VICON BodyLanguage
# -----------------------------------------------
:version 1.10
:name VICON
:units
  mass 1.0
  length 0.45
  angle deg
:documentation
   .ast/.asf automatically generated from VICON data using
   VICON BodyBuilder and BodyLanguage model FoxedUp or BRILLIANT.MOD
:root
   order TX TY TZ RX RY RZ
   axis XYZ
   position 0 0 0  
   orientation 0 0 0 
:bonedata
  begin
     id 1 
     name lhipjoint
     direction 0.611804 -0.747784 0.257906 
     length 2.29243 
     axis 0 0 0  XYZ
  end
  begin
     id 2 
     name lfemur
     direction 0.34202 -0.939693 0  
     length 7.31159  
     axis 0 0 20  XYZ
    dof rx ry rz
    limits (-160.0 20.0)
           (-70.0 70.0)
           (-60.0 70.0)
  end
  begin
     id 3 
     name ltibia
     direction 0.34202 -0.939693 0   
     length 7.33391   
     axis 0 0 20   XYZ
    dof rx
    limits (-10.0 170.0)
  end
  begin
     id 4 
     name lfoot
     direction 0.122263 -0.335914 0.933924   
     length 1.76083   
     axis -90 7.62852e-016 20   XYZ
    dof rx rz
    limits (-45.0 90.0)
           (-70.0 20.0)
  end
  begin
     id 5 
     name ltoes
     direction 1.53533e-011 -4.2177e-011 1   
     length 0.879206   
     axis -90 7.62852e-016 20   XYZ
    dof rx
    limits (-90.0 20.0)
  end
  begin
     id 6 
     name rhipjoint
     direction -0.646469 -0.721248 0.248754   
     length 2.37677  
     axis 0 0 0  XYZ 
  end
  begin
     id 7 
     name rfemur
     direction -0.34202 -0.939693 0   
     length 7.18623   
     axis 0 0 -20   XYZ
    dof rx ry rz
    limits (-160.0 20.0)
           (-70.0 70.0)
           (-70.0 60.0)
  end
  begin
     id 8 
     name rtibia
     direction -0.34202 -0.939693 0   
     length 7.36567   
     axis 0 0 -20   XYZ
    dof rx
    limits (-10.0 170.0)
 end
 begin
     id 9 
     name rfoot
     direction -0.126681 -0.348054 0.928876   
     length 1.71902  
     axis -90 -7.62852e-016 -20   XYZ
    dof rx rz
    limits (-45.0 90.0)
           (-20.0 70.0)
  end
  begin
     id 10 
     name rtoes
     direction -1.53551e-011 -4.21898e-011 1   
     length 0.857792   
     axis -90 -7.62852e-016 -20   XYZ
    dof rx
    limits (-90.0 20.0)
  end
  begin
     id 11 
     name lowerback
     direction 0.0106509 0.999778 0.0181844   
     length 2.07668   
     axis 0 0 0   XYZ
    dof rx ry rz
    limits (-20.0 45.0)
           (-30.0 30.0)
           (-30.0 30.0)
  end
  begin
     id 12 
     name upperback
     direction -0.00456018 0.999989 -0.000590935   
     length 2.08011   
     axis 0 0 0   XYZ
    dof rx ry rz
    limits (-20.0 45.0)
           (-30.0 30.0)
           (-30.0 30.0)
  end
  begin
     id 13 
     name thorax
     direction -0.00910382 0.999916 -0.00923765   
     length 2.07397   
     axis 0 0 0   XYZ
    dof rx ry rz
    limits (-20.0 45.0)
           (-30.0 30.0)
           (-30.0 30.0)
  end
  begin
     id 14 
     name lowerneck
     direction 0.00171967 0.99778 0.0665733   
     length 1.67556   
     axis 0 0 0   XYZ
    dof rx ry rz
    limits (-20.0 45.0)
           (-30.0 30.0)
           (-30.0 30.0)
  end
  begin
     id 15 
     name upperneck
     direction -0.0143166 0.991302 -0.130828   
     length 1.68462   
     axis 0 0 0   XYZ
    dof rx ry rz
    limits (-20.0 45.0)
           (-30.0 30.0)
           (-30.0 30.0)
  end
  begin
     id 16
     name head
     direction -0.00606378 0.998665 -0.0512995  
     length 1.69269  
     axis 0 0 0   XYZ
    dof rx ry rz
    limits (-20.0 45.0)
           (-30.0 30.0)
           (-30.0 30.0)
  end
  begin
     id 17 
     name lclavicle
     direction 0.9638 0.179341 0.197297  
     length 4.12888  
     axis 0 0 0   XYZ
    dof ry rz
    limits (-20.0 10.0)
           (0.0 20.0)
  end
  begin
     id 18 
     name lhumerus
     direction 1 -4.48972e-011 -2.47351e-027   
     length 5.01834   
     axis -180 -30 -90   XYZ
    dof rx ry rz
    limits (-60.0 90.0)
           (-90.0 90.0)
           (-90.0 90.0)
  end
  begin
     id 19
     name lradius
     direction 1 -4.48965e-011 1.51591e-026   
     length 3.4869   
     axis -180 -30 -90   XYZ
    dof rx
    limits (-10.0 170.0)
  end
  begin
     id 20
     name lwrist
     direction 1 -4.48957e-011 2.70032e-026   
     length 1.74345   
     axis -1.81515e-014 90 90   XYZ
    dof ry
    limits (-180.0 0.0)
 end
  begin
     id 21 
     name lhand
     direction 1 -4.48951e-011 5.40064e-026   
     length 0.76799   
     axis -3.44607e-014 90 90   XYZ
    dof rx rz
    limits (-90.0 90.0)
           (-45.0 45.0)
  end
  begin
     id 22 
     name lfingers
     direction 1 -4.48971e-011 1.08013e-025   
     length 0.619174   
     axis -6.89214e-014 90 90   XYZ
    dof rx
    limits (0.0 90.0)
  end
  begin
     id 23
     name lthumb
     direction 0.707107 -6.34931e-011 0.707107   
     length 0.889013   
     axis -90 45 2.85299e-015   XYZ
    dof rx rz
    limits (-45.0 45.0)
           (-45.0 45.0)
  end
  begin
     id 24 
     name rclavicle
     direction -0.961409 0.252588 0.109054   
     length 4.04305  
     axis 0 0 0   XYZ 
    dof ry rz
    limits (-10.0 20.0)
           (-20.0 0.0)
  end
  begin
     id 25 
     name rhumerus
     direction -1 -4.4897e-011 1.33872e-017  
     length 4.70164   
     axis -180 30 90   XYZ
    dof rx ry rz
    limits (-90.0 60.0)
           (-90.0 90.0)
           (-90.0 90.0)
  end
  begin
     id 26 
     name rradius
     direction -1 -4.48954e-011 1.83844e-026   
     length 3.49911   
     axis -180 30 90   XYZ
    dof rx
    limits (-10.0 170.0)
  end
  begin
     id 27 
     name rwrist
     direction -1 -4.49008e-011 2.70032e-026   
     length 1.74955   
     axis -1.81515e-014 -90 -90   XYZ
    dof ry
    limits (-180.0 0.0)
  end
  begin
     id 28
     name rhand
     direction -1 -4.48916e-011 5.40064e-026   
     length 0.739335   
     axis -3.44607e-014 -90 -90   XYZ
    dof rx rz
    limits (-90.0 90.0)
           (-45.0 45.0)
  end
  begin
     id 29
     name rfingers
     direction -1 -4.48987e-011 1.08013e-025   
     length 0.596071   
     axis -6.89214e-014 -90 -90   XYZ
    dof rx
    limits (0.0 90.0)
  end
  begin
     id 30
     name rthumb
     direction -0.707107 -6.34935e-011 0.707107   
     length 0.855843   
     axis -90 -45 -2.85299e-015   XYZ
    dof rx rz
    limits (-45.0 45.0)
           (-45.0 45.0)
  end
:hierarchy
  begin
    root lhipjoint rhipjoint lowerback
    lhipjoint lfemur
    lfemur ltibia
    ltibia lfoot
    lfoot ltoes
    rhipjoint rfemur
    rfemur rtibia
    rtibia rfoot
    rfoot rtoes
    lowerback upperback
    upperback thorax
    thorax lowerneck lclavicle rclavicle
    lowerneck upperneck
    upperneck head
    lclavicle lhumerus
    lhumerus lradius
    lradius lwrist
    lwrist lhand lthumb
    lhand lfingers
    rclavicle rhumerus
    rhumerus rradius
    rradius rwrist
    rwrist rhand rthumb
    rhand rfingers
  end

#!OML:ASF I:\salsa\salsa 7_09\Patient 1\Session 1\dancermale.ASF
:FULLY-SPECIFIED
:DEGREES
920
root 9.33208 16.9214 3.39886 163.173 -73.9648 560.04
lowerback 2.42896 2.42577 0.585614
upperback -0.0246789 3.22626 -1.25677
thorax -1.28026 1.60186 -1.72546
lowerneck -11.9191 -0.197749 -0.800924
upperneck 15.7233 0.259431 -2.86565
head 6.76646 -0.22204 -0.772129
rclavicle 2.61402e-014 -3.18055e-015
rhumerus -42.8697 18.5526 -92.1041
rradius 93.4814
rwrist -12.6192
rhand -32.0149 -16.1884
rfingers 7.12502
rthumb -5.26314 -46.1031
lclavicle 2.61402e-014 -3.18055e-015
lhumerus -27.9572 -24.8605 96.5272
lradius 89.0686
lwrist 61.0111
lhand -13.5321 61.1949
lfingers 7.12502
lthumb 12.5802 -450.796
rfemur -14.489 -5.07044 24.66
rtibia 32.6684
rfoot -22.2253 -16.8168
rtoes -3.53338
lfemur -39.2392 16.2176 -5.9685
ltibia 71.0785
lfoot -1.86889 4.95327
ltoes 15.492
921
root 9.27868 16.8949 3.35169 159.578 -77.5008 564.138
lowerback 2.28618 1.42351 1.33007
upperback -0.0915809 1.91087 -1.32478
thorax -1.28606 0.939948 -2.16672
lowerneck -11.8899 -0.105094 -0.791773
upperneck 15.5873 0.406351 -3.00367
head 6.71993 -0.159704 -0.803529
rclavicle -1.26228e-014 6.36111e-015
rhumerus -44.0085 18.0096 -94.8674
rradius 93.8124
rwrist -11.9942
rhand -33.2061 -15.533
rfingers 7.12502
rthumb -6.41314 -45.4159
lclavicle -1.26228e-014 6.36111e-015
lhumerus -26.6784 -22.5063 94.6444
lradius 89.2278
lwrist 60.5628
lhand -13.8441 61.9207
lfingers 7.12502
lthumb 12.2794 -451.54
rfemur -14.6597 -8.02431 24.1701
rtibia 32.7176
rfoot -22.5463 -17.7337
rtoes -3.60379
lfemur -42.7715 15.3096 -8.72454
ltibia 70.3742
lfoot -1.95011 6.60222
ltoes 14.8903
922
root 9.21019 16.9061 3.20789 158.948 -77.4092 564.235
lowerback 2.90596 1.73203 0.893312
upperback -0.0307394 2.31618 -1.0829
thorax -1.57908 1.14381 -1.70706
lowerneck -11.8417 -0.0858792 -0.765857
upperneck 15.6638 0.434451 -3.04595
head 6.73659 -0.149681 -0.819178
rclavicle -3.97569e-014 -7.95139e-015
rhumerus -45.2392 17.5488 -97.5088
rradius 94.1983
rwrist -10.8389
rhand -33.9414 -16.2832
rfingers 7.12502
rthumb -7.12305 -46.1433
lclavicle -3.97569e-014 -7.95139e-015
lhumerus -25.5263 -20.5765 92.8117
lradius 89.2479
lwrist 58.7854
lhand -14.1389 62.4818
lfingers 7.12502
lthumb 11.9952 -452.118
rfemur -13.5613 -7.40045 24.6638
rtibia 32.5827
rfoot -22.9095 -18.265
rtoes -3.55956
lfemur -42.8405 18.616 -9.92626
ltibia 68.1445
lfoot -2.16545 7.50099
ltoes 14.0851
923
root 9.1339 16.914 3.0945 157.036 -77.9828 565.88
lowerback 3.33701 1.82459 0.950016
upperback -0.0648332 2.44616 -0.963808
thorax -1.85383 1.20624 -1.63875
lowerneck -11.6565 -0.120757 -0.513752
upperneck 15.5415 0.381158 -3.32615
head 6.66504 -0.180953 -0.954353
rclavicle 1.80894e-014 -9.54166e-015
rhumerus -46.3882 17.0406 -99.9142
rradius 94.4616
rwrist -9.71066
rhand -34.8139 -17.2092
rfingers 7.12502
rthumb -7.96515 -47.0391
lclavicle 1.80894e-014 -9.54166e-015
lhumerus -24.4207 -19.8709 91.2661
lradius 89.1474
lwrist 54.1897
lhand -14.5955 62.9527
lfingers 7.12502
lthumb 11.5549 -452.614
rfemur -12.6309 -7.4716 25.1241
rtibia 32.2841
rfoot -23.2346 -18.7959
rtoes -2.95499
lfemur -43.3759 21.2312 -11.4377
ltibia 66.0632
lfoot -2.56812 8.11834
ltoes 13.5736
924
root 9.04994 16.9153 3.0002 154.302 -79.0097 568.619
lowerback 3.43874 1.78302 1.14389
upperback -0.169365 2.40181 -0.890759
thorax -2.01494 1.18091 -1.67639
lowerneck -11.4863 -0.233171 -0.339315
upperneck 15.5868 0.215662 -3.46682
head 6.6472 -0.262267 -1.04303
rclavicle -2.32578e-014 -2.22639e-014
rhumerus -47.3086 16.3139 -101.838
rradius 94.5101
rwrist -9.34246
rhand -35.6482 -16.631
rfingers 7.12502
rthumb -8.77036 -46.4288
lclavicle -2.32578e-014 -2.22639e-014
lhumerus -23.0803 -19.6361 89.789
lradius 88.7858
lwrist 49.8497
lhand -14.9817 63.2554
lfingers 7.12502
lthumb 11.1824 -452.937
rfemur -12.0036 -7.80675 25.4579
rtibia 31.9904
rfoot -23.4989 -19.4467
rtoes -1.85385
lfemur -44.2604 23.1984 -13.3342
ltibia 64.2206
lfoot -2.86953 9.25529
ltoes 15.3986
925
root 8.95379 16.9165 2.9123 151.241 -79.9807 571.752
lowerback 3.31454 1.75521 1.24322
upperback -0.295926 2.37158 -0.777271
thorax -2.07721 1.16454 -1.61244
lowerneck -11.2332 -0.385264 -0.342618
upperneck 15.6429 0.0116886 -3.52191
head 6.61749 -0.365477 -1.07785
rclavicle 4.17448e-015 7.95139e-016
rhumerus -48.1108 15.6664 -103.385
rradius 94.3231
rwrist -9.61065
rhand -36.2686 -15.4099
rfingers 7.12502
rthumb -9.36897 -45.1817
lclavicle 4.17448e-015 7.95139e-016
lhumerus -21.6099 -19.5987 88.4651
lradius 88.3041
lwrist 46.1199
lhand -15.3821 63.4174
lfingers 7.12502
lthumb 10.7962 -453.12
rfemur -11.4614 -7.9151 25.7997
rtibia 31.7555
rfoot -23.9054 -20.1378
rtoes -0.414084
lfemur -44.921 25.0885 -15.2971
ltibia 62.5064
lfoot -2.62286 11.1759
ltoes 17.6613
926
root 8.84362 16.9146 2.8341 147.707 -81.1047 575.522
lowerback 2.8119 1.64786 1.23643
upperback -0.411088 2.22666 -0.670515
thorax -1.92322 1.09418 -1.4776
lowerneck -11.1165 -0.574614 -0.582482
upperneck 15.8131 -0.220895 -3.43015
head 6.64851 -0.487187 -1.03047
rclavicle 6.4605e-015 -1.66979e-014
rhumerus -48.7583 15.496 -104.731
rradius 93.9639
rwrist -10.0764
rhand -36.924 -14.6133
rfingers 7.12502
rthumb -10.0014 -44.3557
lclavicle 6.4605e-015 -1.66979e-014
lhumerus -19.9621 -19.3876 87.3063
lradius 87.549
lwrist 42.7623
lhand -15.5441 63.5122
lfingers 7.12502
lthumb 10.64 -453.223
rfemur -11.1244 -8.04273 26.0024
rtibia 31.6017
rfoot -24.4408 -20.8849
rtoes 0.956036
lfemur -45.5188 26.6775 -17.4903
ltibia 60.9075
lfoot -1.46825 13.1945
ltoes 19.2078
927
root 8.72199 16.9152 2.76017 143.422 -82.3279 579.945
lowerback 2.29514 1.50054 1.05574
upperback -0.484107 2.02137 -0.593164
thorax -1.72412 0.995518 -1.27417
lowerneck -11.1365 -0.775849 -0.7139
upperneck 16.0989 -0.4708 -3.42137
head 6.74042 -0.620937 -1.03119
rclavicle -6.75868e-015 1.59028e-015
rhumerus -49.2543 15.5796 -105.868
rradius 93.6938
rwrist -10.6496
rhand -37.3772 -14.1275
rfingers 7.12502
rthumb -10.4385 -43.8484
lclavicle -6.75868e-015 1.59028e-015
lhumerus -18.195 -18.9635 86.3207
lradius 86.4388
lwrist 39.8184
lhand -15.7108 63.685
lfingers 7.12502
lthumb 10.4791 -453.404
rfemur -10.7013 -8.16055 26.0304
rtibia 31.5403
rfoot -25.0731 -21.7192
rtoes 2.09623
lfemur -45.6735 28.0953 -19.7201
ltibia 59.2625
lfoot 0.296648 14.8166
ltoes 19.2786
928
root 8.59278 16.9125 2.69179 138.316 -83.4716 585.326
lowerback 1.64111 1.35922 0.813868
upperback -0.659223 1.82248 -0.543636
thorax -1.55162 0.899281 -1.06601
lowerneck -11.1072 -0.941515 -0.638487
upperneck 16.3729 -0.685144 -3.56794
head 6.81911 -0.738158 -1.11286
rclavicle -1.33186e-014 -5.56597e-015
rhumerus -49.8496 15.6237 -106.795
rradius 93.6444
rwrist -11.532
rhand -37.3561 -13.4812
rfingers 7.12502
rthumb -10.4182 -43.2031
lclavicle -1.33186e-014 -5.56597e-015
lhumerus -16.4576 -18.3861 85.4991
lradius 85.118
lwrist 38.0096
lhand -16.3997 63.9156
lfingers 7.12502
lthumb 9.81451 -453.667
rfemur -10.5336 -8.24326 26.0234
rtibia 31.7078
rfoot -25.7834 -22.527
rtoes 2.651
lfemur -45.5013 29.1702 -21.6246
ltibia 57.9264
lfoot -0.33389 16.8142
ltoes 23.997
929
root 8.46261 16.9039 2.63234 130.621 -84.4594 593.385
lowerback 0.999106 1.19191 0.737965
upperback -0.971425 1.59298 -0.517686
thorax -1.51967 0.783932 -0.979739
lowerneck -10.9817 -1.0891 -0.601566
upperneck 16.7394 -0.888904 -3.61136
head 6.91116 -0.84561 -1.15468
rclavicle -9.24349e-015 6.36111e-015
rhumerus -50.7154 15.6799 -107.646
rradius 93.7876
rwrist -12.6422
rhand -37.1132 -12.7288
rfingers 7.12502
rthumb -10.1839 -42.4624
lclavicle -9.24349e-015 6.36111e-015
lhumerus -14.7688 -17.5544 84.8133
lradius 83.5039
lwrist 37.1671
lhand -16.9281 63.9423
lfingers 7.12502
lthumb 9.30469 -453.717
rfemur -10.5674 -8.6341 26.0398
rtibia 32.0807
rfoot -26.4889 -23.0893
rtoes 2.45641
lfemur -45.1228 29.9865 -23.2549
ltibia 56.5136
lfoot -0.773899 17.7632
ltoes 20.3837
930
root 8.33626 16.8884 2.58105 118.482 -85.3086 605.86
lowerback 0.492398 0.994026 0.784828
upperback -1.34843 1.32321 -0.541554
thorax -1.62614 0.644951 -1.01908
lowerneck -10.744 -1.2635 -0.639073
upperneck 17.0649 -1.14043 -3.54143
head 6.97064 -0.969428 -1.15051
rclavicle -5.8393e-015 -8.74653e-015
rhumerus -51.7362 15.8098 -108.48
rradius 94.1476
rwrist -13.4737
rhand -36.9114 -12.6767
rfingers 7.12502
rthumb -9.98919 -42.4197
lclavicle -5.8393e-015 -8.74653e-015
lhumerus -13.0324 -16.5904 84.3006
lradius 81.4973
lwrist 37.2755
lhand -17.1847 63.7114
lfingers 7.12502
lthumb 9.05708 -453.497
rfemur -10.7222 -9.54277 25.964
rtibia 32.773
rfoot -27.1454 -23.3238
rtoes 1.43228
lfemur -43.9091 29.6505 -23.8386
ltibia 54.5897
lfoot -1.65049 17.1168
ltoes 14.6117
